<?xml version="1.0" encoding="UTF-8"?>
<svg id="Layer_1" xmlns="http://www.w3.org/2000/svg" version="1.1" viewBox="0 0 1122 1122">
  <!-- Generator: Adobe Illustrator 29.0.1, SVG Export Plug-In . SVG Version: 2.1.0 Build 192)  -->
  <defs>
    <style>
      .st0 {
        fill: #ff7400;
      }
    </style>
  </defs>
  <rect width="1122" height="1122"/>
  <g>
    <g>
      <path class="st0" d="M491.9,329.8c88-55.9,180.6,6.5,180.6,90.1h87c0-142.8-151.7-251-302.4-171.6-58.7,30.9-94.5,92.7-94.5,159v85.8h-39c-20.9,0-37.8,16.9-37.8,37.7v299.7h550.3v-299.7c0-20.8-16.9-37.7-37.7-37.7h-348.8v-85.6c0-31.4,15.8-60.9,42.3-77.8ZM522.5,628.4c1.9-2.9,4.3-5.4,7.2-7.2,38.8-25.6,79.8,1.6,79.8,38.4s-9.3,32.6-23.1,41.2v47.6h-50.6v-47.6c-21.7-13.4-32.3-43.1-13.2-72.3Z"/>
      <path class="st0" d="M346.3,900.6h429.5c28.2,0,51.8-19.4,58.5-45.5H287.8c6.7,26.1,30.3,45.5,58.5,45.5Z"/>
    </g>
    <path d="M285.8,840.1c0,5.2.7,10.1,1.9,14.9h546.4c1.2-4.8,1.9-9.8,1.9-14.9v-9.6H285.8v9.6Z"/>
  </g>
</svg>